<?xml version="1.0" encoding="UTF-8"?>
<svg id="_圖層_1" data-name="圖層_1" xmlns="http://www.w3.org/2000/svg" version="1.1" viewBox="0 0 1306 197.68">
  <!-- Generator: Adobe Illustrator 30.1.0, SVG Export Plug-In . SVG Version: 2.1.1 Build 136)  -->
  <defs>
    <style>
      .st0 {
        fill: #fff;
        fill-opacity: .7;
      }
    </style>
  </defs>
  <path class="st0" d="M1271.09,5c16.39,0,29.69,18.18,29.91,40.71h0v105.16h-.01c-.3,22.43-13.57,40.49-29.9,40.49-7.66,0-14.65-3.98-19.94-10.51-5.29,6.53-12.27,10.51-19.94,10.51s-14.64-3.98-19.93-10.51c-5.3,6.53-12.28,10.51-19.94,10.51s-14.65-3.98-19.94-10.51c-5.29,6.53-12.28,10.51-19.94,10.51s-14.65-3.98-19.94-10.51c-5.29,6.53-12.28,10.51-19.94,10.51s-14.64-3.98-19.93-10.51c-5.3,6.53-12.28,10.51-19.94,10.51s-14.65-3.98-19.94-10.51c-5.29,6.53-12.28,10.51-19.94,10.51s-14.65-3.98-19.94-10.51c-5.29,6.53-12.28,10.51-19.94,10.51s-14.65-3.98-19.94-10.51c-5.29,6.53-12.28,10.51-19.94,10.51s-14.65-3.98-19.94-10.51c-5.29,6.53-12.28,10.51-19.94,10.51s-14.65-3.98-19.94-10.51c-5.29,6.53-12.28,10.51-19.94,10.51s-14.65-3.98-19.94-10.51c-5.29,6.53-12.28,10.51-19.94,10.51s-14.65-3.98-19.94-10.51c-5.29,6.53-12.28,10.51-19.94,10.51s-14.65-3.98-19.94-10.51c-5.29,6.53-12.28,10.51-19.94,10.51s-14.65-3.98-19.94-10.51c-5.29,6.53-12.28,10.51-19.94,10.51s-14.65-3.98-19.94-10.51c-5.29,6.53-12.28,10.51-19.94,10.51s-14.65-3.98-19.94-10.51c-5.29,6.53-12.28,10.51-19.94,10.51s-14.65-3.98-19.94-10.51c-5.29,6.53-12.28,10.51-19.94,10.51s-14.65-3.98-19.94-10.51c-5.29,6.53-12.28,10.51-19.94,10.51s-14.65-3.98-19.94-10.51c-5.29,6.53-12.28,10.51-19.94,10.51s-14.65-3.98-19.94-10.51c-5.29,6.53-12.28,10.51-19.94,10.51s-14.65-3.98-19.94-10.51c-5.29,6.53-12.28,10.51-19.94,10.51s-14.65-3.98-19.94-10.51c-5.29,6.53-12.28,10.51-19.94,10.51s-14.65-3.98-19.94-10.51c-5.29,6.53-12.28,10.51-19.94,10.51s-14.65-3.98-19.94-10.51c-5.29,6.53-12.28,10.51-19.94,10.51s-14.65-3.98-19.94-10.51c-5.29,6.53-12.28,10.51-19.94,10.51s-14.65-3.98-19.94-10.51c-5.29,6.53-12.28,10.51-19.94,10.51s-14.65-3.98-19.94-10.51c-5.29,6.53-12.28,10.51-19.94,10.51s-14.65-3.98-19.94-10.51c-5.29,6.53-12.28,10.51-19.94,10.51s-14.65-3.98-19.94-10.51c-5.29,6.53-12.28,10.51-19.94,10.51s-14.65-3.98-19.94-10.51c-5.29,6.53-12.28,10.51-19.94,10.51s-14.65-3.98-19.94-10.51c-5.29,6.53-12.28,10.51-19.94,10.51-16.33,0-29.6-18.06-29.9-40.49h0V45.71h0c.22-22.53,13.52-40.71,29.9-40.71,7.66,0,14.65,3.98,19.94,10.51,5.29-6.54,12.28-10.51,19.94-10.51,7.66,0,14.65,3.98,19.94,10.51,5.29-6.54,12.28-10.51,19.94-10.51,7.66,0,14.65,3.98,19.94,10.51,5.29-6.54,12.28-10.51,19.94-10.51,7.66,0,14.65,3.98,19.94,10.51,5.29-6.54,12.28-10.51,19.94-10.51,7.66,0,14.65,3.98,19.94,10.51,5.29-6.54,12.28-10.51,19.94-10.51,7.66,0,14.65,3.98,19.94,10.51,5.29-6.54,12.28-10.51,19.94-10.51,7.66,0,14.65,3.98,19.94,10.51,5.29-6.54,12.28-10.51,19.94-10.51,7.66,0,14.65,3.98,19.94,10.51,5.29-6.54,12.28-10.51,19.94-10.51,7.66,0,14.65,3.98,19.94,10.51,5.29-6.54,12.28-10.51,19.94-10.51,7.66,0,14.65,3.98,19.94,10.51,5.29-6.54,12.28-10.51,19.94-10.51,7.66,0,14.65,3.98,19.94,10.51,5.29-6.54,12.28-10.51,19.94-10.51,7.66,0,14.65,3.98,19.94,10.51,5.29-6.54,12.28-10.51,19.94-10.51,7.66,0,14.65,3.98,19.94,10.51,5.29-6.54,12.28-10.51,19.94-10.51,7.66,0,14.65,3.98,19.94,10.51,5.29-6.54,12.28-10.51,19.94-10.51,7.66,0,14.65,3.98,19.94,10.51,5.29-6.54,12.28-10.51,19.94-10.51,7.66,0,14.65,3.98,19.94,10.51,5.29-6.54,12.28-10.51,19.94-10.51,7.66,0,14.65,3.98,19.94,10.51,5.29-6.54,12.28-10.51,19.94-10.51,7.66,0,14.65,3.98,19.94,10.51,5.29-6.54,12.28-10.51,19.94-10.51,7.66,0,14.65,3.98,19.94,10.51,5.29-6.54,12.28-10.51,19.94-10.51,7.66,0,14.65,3.98,19.94,10.51,5.29-6.54,12.28-10.51,19.94-10.51,7.66,0,14.65,3.98,19.94,10.51,5.29-6.54,12.28-10.51,19.94-10.51,7.66,0,14.65,3.98,19.94,10.51,5.29-6.54,12.28-10.51,19.94-10.51,7.66,0,14.65,3.98,19.94,10.51,5.29-6.54,12.28-10.51,19.94-10.51,7.66,0,14.65,3.98,19.94,10.51,5.29-6.54,12.28-10.51,19.94-10.51,7.66,0,14.65,3.98,19.94,10.51,5.29-6.54,12.28-10.51,19.94-10.51,7.66,0,14.65,3.98,19.94,10.51,5.29-6.54,12.28-10.51,19.94-10.51,7.66,0,14.64,3.98,19.94,10.51,5.29-6.54,12.27-10.51,19.93-10.51,7.66,0,14.65,3.98,19.94,10.51,5.29-6.54,12.28-10.51,19.94-10.51,7.66,0,14.65,3.98,19.94,10.51,5.29-6.54,12.28-10.51,19.94-10.51,7.66,0,14.64,3.98,19.94,10.51,5.29-6.54,12.27-10.51,19.93-10.51,7.67,0,14.65,3.98,19.94,10.51,5.29-6.54,12.28-10.51,19.94-10.51Z"/>
</svg>