<?xml version="1.0" encoding="UTF-8"?>
<svg id="_圖層_1" xmlns="http://www.w3.org/2000/svg" version="1.1" viewBox="0 0 1306 72">
  <!-- Generator: Adobe Illustrator 30.1.0, SVG Export Plug-In . SVG Version: 2.1.1 Build 136)  -->
  <defs>
    <style>
      .st0 {
        fill: #fff;
        isolation: isolate;
        opacity: .7;
      }
    </style>
  </defs>
  <path class="st0" d="M1271.09,5c16.52,0,29.91,13.88,29.91,31s-13.39,31-29.91,31c-7.66,0-14.65-2.99-19.94-7.9-5.29,4.91-12.27,7.9-19.94,7.9s-14.64-2.99-19.93-7.9c-5.3,4.91-12.28,7.9-19.94,7.9s-14.65-2.99-19.94-7.9c-5.29,4.91-12.28,7.9-19.94,7.9s-14.65-2.99-19.94-7.9c-5.29,4.91-12.28,7.9-19.94,7.9s-14.64-2.99-19.93-7.9c-5.3,4.91-12.28,7.9-19.94,7.9s-14.65-2.99-19.94-7.9c-5.29,4.91-12.28,7.9-19.94,7.9s-14.65-2.99-19.94-7.9c-5.29,4.91-12.28,7.9-19.94,7.9s-14.65-2.99-19.94-7.9c-5.29,4.91-12.28,7.9-19.94,7.9s-14.65-2.99-19.94-7.9c-5.29,4.91-12.28,7.9-19.94,7.9s-14.65-2.99-19.94-7.9c-5.29,4.91-12.28,7.9-19.94,7.9s-14.65-2.99-19.94-7.9c-5.29,4.91-12.28,7.9-19.94,7.9s-14.65-2.99-19.94-7.9c-5.29,4.91-12.28,7.9-19.94,7.9s-14.65-2.99-19.94-7.9c-5.29,4.91-12.28,7.9-19.94,7.9s-14.65-2.99-19.94-7.9c-5.29,4.91-12.28,7.9-19.94,7.9s-14.65-2.99-19.94-7.9c-5.29,4.91-12.28,7.9-19.94,7.9s-14.65-2.99-19.94-7.9c-5.29,4.91-12.28,7.9-19.94,7.9s-14.65-2.99-19.94-7.9c-5.29,4.91-12.28,7.9-19.94,7.9s-14.65-2.99-19.94-7.9c-5.29,4.91-12.28,7.9-19.94,7.9s-14.65-2.99-19.94-7.9c-5.29,4.91-12.28,7.9-19.94,7.9s-14.65-2.99-19.94-7.9c-5.29,4.91-12.28,7.9-19.94,7.9s-14.65-2.99-19.94-7.9c-5.29,4.91-12.28,7.9-19.94,7.9s-14.65-2.99-19.94-7.9c-5.29,4.91-12.28,7.9-19.94,7.9s-14.65-2.99-19.94-7.9c-5.29,4.91-12.28,7.9-19.94,7.9s-14.65-2.99-19.94-7.9c-5.29,4.91-12.28,7.9-19.94,7.9s-14.65-2.99-19.94-7.9c-5.29,4.91-12.28,7.9-19.94,7.9s-14.65-2.99-19.94-7.9c-5.29,4.91-12.28,7.9-19.94,7.9s-14.65-2.99-19.94-7.9c-5.29,4.91-12.28,7.9-19.94,7.9s-14.65-2.99-19.94-7.9c-5.29,4.91-12.28,7.9-19.94,7.9s-14.65-2.99-19.94-7.9c-5.29,4.91-12.28,7.9-19.94,7.9s-14.65-2.99-19.94-7.9c-5.29,4.91-12.28,7.9-19.94,7.9s-14.65-2.99-19.94-7.9c-5.29,4.91-12.28,7.9-19.94,7.9-16.52,0-29.91-13.88-29.91-31S18.39,5,34.91,5c7.66,0,14.65,2.99,19.94,7.9,5.29-4.91,12.28-7.9,19.94-7.9s14.65,2.99,19.94,7.9c5.29-4.91,12.28-7.9,19.94-7.9s14.65,2.99,19.94,7.9c5.29-4.91,12.28-7.9,19.94-7.9s14.65,2.99,19.94,7.9c5.29-4.91,12.28-7.9,19.94-7.9s14.65,2.99,19.94,7.9c5.29-4.91,12.28-7.9,19.94-7.9s14.65,2.99,19.94,7.9c5.29-4.91,12.28-7.9,19.94-7.9s14.65,2.99,19.94,7.9c5.29-4.91,12.28-7.9,19.94-7.9s14.65,2.99,19.94,7.9c5.29-4.91,12.28-7.9,19.94-7.9s14.65,2.99,19.94,7.9c5.29-4.91,12.28-7.9,19.94-7.9s14.65,2.99,19.94,7.9c5.29-4.91,12.28-7.9,19.94-7.9s14.65,2.99,19.94,7.9c5.29-4.91,12.28-7.9,19.94-7.9s14.65,2.99,19.94,7.9c5.29-4.91,12.28-7.9,19.94-7.9s14.65,2.99,19.94,7.9c5.29-4.91,12.28-7.9,19.94-7.9s14.65,2.99,19.94,7.9c5.29-4.91,12.28-7.9,19.94-7.9s14.65,2.99,19.94,7.9c5.29-4.91,12.28-7.9,19.94-7.9s14.65,2.99,19.94,7.9c5.29-4.91,12.28-7.9,19.94-7.9s14.65,2.99,19.94,7.9c5.29-4.91,12.28-7.9,19.94-7.9s14.65,2.99,19.94,7.9c5.29-4.91,12.28-7.9,19.94-7.9s14.65,2.99,19.94,7.9c5.29-4.91,12.28-7.9,19.94-7.9s14.65,2.99,19.94,7.9c5.29-4.91,12.28-7.9,19.94-7.9s14.65,2.99,19.94,7.9c5.29-4.91,12.28-7.9,19.94-7.9s14.65,2.99,19.94,7.9c5.29-4.91,12.28-7.9,19.94-7.9s14.65,2.99,19.94,7.9c5.29-4.91,12.28-7.9,19.94-7.9s14.65,2.99,19.94,7.9c5.29-4.91,12.28-7.9,19.94-7.9s14.65,2.99,19.94,7.9c5.29-4.91,12.28-7.9,19.94-7.9s14.65,2.99,19.94,7.9c5.29-4.91,12.28-7.9,19.94-7.9s14.64,2.99,19.94,7.9c5.29-4.91,12.27-7.9,19.93-7.9s14.65,2.99,19.94,7.9c5.29-4.91,12.28-7.9,19.94-7.9s14.65,2.99,19.94,7.9c5.29-4.91,12.28-7.9,19.94-7.9s14.64,2.99,19.94,7.9c5.29-4.91,12.27-7.9,19.93-7.9s14.65,2.99,19.94,7.9c5.29-4.91,12.28-7.9,19.94-7.9h-.08Z"/>
</svg>