<svg width="270" height="179" viewBox="0 0 270 179" fill="none" xmlns="http://www.w3.org/2000/svg">
<g filter="url(#filter0_gf_54_1035)">
<path d="M118.661 8C139.294 8 157.274 19.2988 166.687 36.0143C172.95 33.5489 179.777 32.1939 186.922 32.1939C213.544 32.194 235.747 51.0038 240.833 75.9893C249.57 84.4224 255 96.2262 255 109.292C255 134.919 234.111 155.694 208.343 155.694C200.032 155.694 192.228 153.531 185.468 149.742C175.694 158.599 162.699 164 148.435 164C130.871 164 115.23 155.813 105.159 143.067C95.6272 150.952 83.3746 155.694 70.0078 155.694C39.6279 155.694 15 131.2 15 100.986C15.0001 72.066 37.5621 48.3883 66.1348 46.4118C73.108 24.1562 93.9875 8.00018 118.661 8Z" fill="url(#paint0_linear_54_1035)"/>
</g>
<defs>
<filter id="filter0_gf_54_1035" x="0" y="-7" width="270" height="186" filterUnits="userSpaceOnUse" color-interpolation-filters="sRGB">
<feFlood flood-opacity="0" result="BackgroundImageFix"/>
<feBlend mode="normal" in="SourceGraphic" in2="BackgroundImageFix" result="shape"/>
<feTurbulence type="fractalNoise" baseFrequency="0.40000000596046448 0.40000000596046448" numOctaves="3" seed="5751" />
<feDisplacementMap in="shape" scale="4" xChannelSelector="R" yChannelSelector="G" result="displacedImage" width="100%" height="100%" />
<feMerge result="effect1_texture_54_1035">
<feMergeNode in="displacedImage"/>
</feMerge>
<feGaussianBlur stdDeviation="7.5" result="effect2_foregroundBlur_54_1035"/>
</filter>
<linearGradient id="paint0_linear_54_1035" x1="110.717" y1="23.1728" x2="148.306" y2="172.493" gradientUnits="userSpaceOnUse">
<stop stop-color="white" stop-opacity="0.7"/>
<stop offset="1" stop-color="white" stop-opacity="0.1"/>
</linearGradient>
</defs>
</svg>
